<?xml version="1.0" encoding="UTF-8" standalone="no"?>
<svg
   version="1.0"
   width="300.000000pt"
   height="300.000000pt"
   viewBox="0 0 300.000000 300.000000"
   preserveAspectRatio="xMidYMid meet"
   id="svg3"
   sodipodi:docname="about2.svg"
   inkscape:version="1.3.2 (091e20ef0f, 2023-11-25)"
   xmlns:inkscape="http://www.inkscape.org/namespaces/inkscape"
   xmlns:sodipodi="http://sodipodi.sourceforge.net/DTD/sodipodi-0.dtd"
   xmlns="http://www.w3.org/2000/svg"
   xmlns:svg="http://www.w3.org/2000/svg">
  <defs
     id="defs3" />
  <sodipodi:namedview
     id="namedview3"
     pagecolor="#ffffff"
     bordercolor="#000000"
     borderopacity="0.25"
     inkscape:showpageshadow="2"
     inkscape:pageopacity="0.0"
     inkscape:pagecheckerboard="0"
     inkscape:deskcolor="#d1d1d1"
     inkscape:document-units="pt"
     inkscape:zoom="5.6922096"
     inkscape:cx="83.447384"
     inkscape:cy="272.03847"
     inkscape:window-width="1920"
     inkscape:window-height="1011"
     inkscape:window-x="0"
     inkscape:window-y="0"
     inkscape:window-maximized="1"
     inkscape:current-layer="svg3" />
  <g
     transform="matrix(0.05810719,0,0,-0.05810719,0.08801091,300.82062)"
     fill="#101016"
     stroke="none"
     id="g3">
    <path
       d="m 3080,5107 c -16,-5 -48,-18 -70,-28 -22,-10 -88,-36 -147,-59 -156,-60 -623,-464 -623,-540 0,-16 -13,-52 -29,-80 -196,-349 -259,-519 -257,-695 1,-140 0,-141 -84,-85 -33,22 -67,40 -75,40 -24,0 -15,-125 13,-190 l 27,-60 26,60 c 15,33 30,64 33,68 9,13 86,-62 86,-83 0,-10 -17,-34 -39,-52 -39,-33 -48,-60 -43,-131 2,-36 4,-36 39,-5 51,46 63,42 63,-26 0,-32 10,-104 22,-159 15,-73 15,-131 -1,-209 l -23,-108 -60,60 c -72,72 -83,65 -66,-42 11,-72 48,-120 48,-63 0,11 15,20 33,20 28,0 30,-15 17,-115 -22,-161 -15,-292 23,-454 24,-100 27,-141 11,-146 -17,-6 -14,-29 7,-81 48,-115 86,-292 94,-439 1,-14 9,-25 18,-25 9,0 10,-14 3,-32 -6,-18 -3,-38 9,-45 13,-8 11,-22 -7,-39 -121,-112 -366,905 -278,1156 56,159 -33,166 -207,16 -156,-135 -178,-204 -146,-463 25,-204 228,-1238 271,-1381 16,-51 21,-92 12,-92 -73,0 -365,1687 -309,1784 9,14 -7,6 -34,-19 -27,-25 -67,-45 -88,-45 -22,0 -97,-27 -167,-61 -71,-33 -223,-97 -338,-142 C 729,2072 492,1963 317,1876 L 0,1718 V 859 0 l 1995,5 1995,5 -2,130 c -1,127 -47,489 -86,690 -61,312 -117,458 -222,577 -33,38 -60,77 -60,88 0,11 -36,45 -80,75 -75,52 -102,90 -63,90 54,0 251,245 344,429 57,111 115,208 130,217 15,8 22,29 15,46 -6,17 8,57 31,89 24,31 43,67 43,78 0,12 34,56 76,100 73,74 184,308 184,386 0,37 42,139 63,155 8,6 29,100 46,210 18,109 44,212 59,229 30,35 59,294 35,309 -9,5 -14,46 -11,91 2,45 -4,86 -14,92 -10,6 -18,40 -18,76 0,35 -12,82 -27,104 -15,21 -44,85 -65,141 -56,151 -165,283 -412,501 -169,149 -673,261 -876,194 z m 111,-700 c 48,-31 99,-35 242,-17 86,11 118,5 200,-38 53,-27 141,-60 195,-72 91,-20 322,-143 357,-190 57,-76 61,-172 18,-405 -28,-154 -46,-338 -50,-535 -7,-321 -14,-351 -180,-686 -43,-85 -43,-86 -133,-74 -126,16 -161,29 -236,86 -77,59 -103,46 -55,-27 34,-52 34,-53 -12,-38 -63,19 -92,44 -123,107 -18,37 -37,49 -65,42 -112,-28 -240,-10 -311,45 -39,30 -94,55 -121,55 -119,0 -179,135 -84,189 l 57,32 -63,-12 c -65,-12 -188,-68 -237,-109 -15,-13 -91,-25 -168,-26 -115,-3 -142,-10 -149,-39 -16,-62 -53,-39 -40,25 17,84 -33,98 -103,28 -46,-46 -51,-60 -32,-102 28,-60 28,-92 2,-76 -12,7 -16,21 -10,30 6,9 0,24 -13,32 -17,10 -20,-6 -11,-59 6,-40 4,-73 -5,-73 -20,0 -46,173 -34,230 5,22 14,90 22,150 47,383 145,758 198,761 27,1 202,206 242,283 15,30 42,80 58,110 17,31 36,89 42,129 14,85 80,177 126,177 39,0 160,37 214,65 103,54 181,54 262,2 z M 2779,2711 c 30,-36 20,-115 -17,-127 -18,-6 -22,-1 -12,15 11,19 3,18 -33,-1 -53,-30 -120,-25 -142,9 -50,79 143,177 204,104 z m -110,-516 c 21,-19 51,-35 65,-35 15,0 79,-22 143,-49 84,-35 162,-50 279,-55 157,-6 164,-8 164,-54 0,-46 -65,-121 -108,-123 -12,-1 -44,-6 -70,-11 -29,-5 -65,6 -90,28 -54,48 -190,87 -228,66 -36,-20 -104,-5 -104,22 0,11 -13,15 -29,9 -17,-6 -35,-2 -42,8 -6,11 -20,14 -30,8 -11,-6 -19,0 -20,15 0,15 -18,5 -40,-22 -34,-41 -47,-45 -88,-26 -40,18 -49,15 -57,-17 -12,-45 -54,-53 -54,-10 0,15 27,48 60,71 65,46 78,80 30,80 -39,0 -39,32 1,48 17,6 27,19 22,27 -5,9 4,33 21,55 21,28 33,32 40,15 5,-14 19,-25 30,-25 11,0 15,15 8,33 -14,35 5,24 97,-58 z m 77,39 c -8,-14 0,-13 20,3 20,16 48,21 69,13 19,-8 56,-17 81,-18 26,-2 53,-15 62,-28 8,-14 28,-20 44,-14 43,16 107,-38 92,-77 -16,-41 -62,-43 -100,-4 -16,16 -34,24 -40,18 -12,-12 -137,22 -209,58 -25,12 -45,39 -45,60 0,20 9,32 20,25 12,-7 14,-23 6,-36 z m -181,-327 c 3,-23 86,-87 114,-87 12,0 27,-13 34,-30 6,-16 24,-30 40,-30 43,0 55,-53 27,-121 -16,-37 -38,-59 -58,-55 -17,3 -45,-3 -60,-13 -22,-13 -26,-9 -15,18 11,30 6,33 -38,22 -33,-8 -48,-5 -40,7 7,11 -6,30 -28,42 -23,12 -41,38 -41,58 0,20 -20,47 -45,60 -25,13 -29,19 -10,13 19,-5 35,-1 35,10 0,10 -15,19 -32,19 -27,0 -28,5 -8,30 14,17 17,31 7,32 -9,1 10,13 43,28 61,27 72,26 75,-3 z m 650,-224 c 42,-5 28,-35 -50,-111 l -75,-74 -35,43 c -19,24 -35,33 -35,21 0,-12 -18,-22 -39,-22 -27,0 -36,10 -28,30 6,17 2,30 -10,30 -11,0 -26,-18 -33,-39 -10,-33 -18,-36 -50,-16 -46,29 -66,97 -36,125 15,14 18,13 9,-2 -8,-14 6,-23 37,-23 29,0 44,9 37,21 -7,11 -4,14 8,7 12,-7 41,-6 65,3 37,14 154,17 235,7 z"
       id="path1" />
    <path
       d="m 2565,3622 c -68,-18 -133,-61 -116,-77 5,-6 2,-25 -8,-43 -15,-29 -8,-33 56,-27 l 73,6 -65,-30 c -36,-16 -81,-24 -100,-16 -29,10 -31,7 -10,-18 17,-22 18,-36 2,-52 -16,-16 5,-26 76,-36 53,-8 104,-25 112,-37 10,-15 14,-13 15,5 0,19 15,24 52,14 30,-7 47,-5 40,6 -7,11 7,14 32,8 40,-11 38,-14 -25,-36 l -69,-24 80,-14 c 140,-24 142,-26 29,-29 -70,-1 -126,9 -150,27 -22,17 -48,30 -58,30 -11,1 0,-13 25,-30 25,-18 40,-39 35,-48 -16,-25 65,-40 209,-40 158,0 226,16 212,50 -12,33 37,52 64,25 26,-26 57,2 117,106 l 43,73 -43,53 c -84,104 -461,196 -628,154 z"
       id="path2" />
    <path
       d="m 3450,3375 c -89,-79 -100,-401 -12,-346 9,6 33,-8 52,-29 111,-123 301,-173 403,-106 42,28 62,29 113,10 34,-13 66,-18 73,-11 6,7 -1,17 -15,22 -16,5 -19,18 -9,32 10,13 29,69 42,125 l 25,101 -84,84 c -64,64 -103,86 -158,91 -41,3 -84,12 -95,19 -11,7 -75,25 -143,41 l -122,28 z"
       id="path3" />
  </g>
</svg>
